# xmcd
# 
# Track frame offsets:
#     150
#     8667
#     14715
#     21262
#     27830
#     34155
#     40962
#     47510
#     48957
#     50442
#     52592
#     54875
#     56600
#     58622
#     60402
#     62572
#     67582
#     72812
#     80195
#     86982
#     90452
#     94275
#     96612
#     98632
#     100117
#     101582
#     105792
#     107055
#     108482
#     110597
#     112675
#     114567
#     116292
#     117610
#     119872
#     121747
#     124547
#     125697
#     127367
#     130000
#     135657
#     137030
#     138272
#     139870
#     142430
#     144302
#     146342
#     148255
#     149830
#     155655
#     157342
#     160070
#     161777
#     164892
#     166487
#     167935
#     169585
#     171180
#     176930
#     178675
#     180307
#     181940
#     183572
#     185185
#     186892
#     188507
#     190027
#     192032
#     193867
#     195387
#     197335
#     200435
#     202622
#     204587
#     207797
#     213902
#     219177
#     223412
#     229762
#     231862
#     233910
#     235972
#     239080
#     240915
#     242887
#     244017
#     246172
#     247352
#     249767
#     252012
#     254022
#     258097
#     263122
# 
# Disc length: 3657
# 
# Revision: 1
# Processed by: cddbd v1.5.2PL0 Copyright (c) Steve Scherf et al.
# Submitted via: fre:ac v1.0.17
# 
DISCID=660e475d
DTITLE=Progressive - Blues Licks
DYEAR=1995
DGENRE=Blues
TTITLE0=Blues Lick
TTITLE1=Blues Lick
TTITLE2=Blues Lick
TTITLE3=Blues Lick
TTITLE4=Blues Lick
TTITLE5=Blues Lick
TTITLE6=Blues Lick
TTITLE7=Blues Lick
TTITLE8=Blues Lick
TTITLE9=Blues Lick
TTITLE10=Blues Lick
TTITLE11=Blues Lick
TTITLE12=Blues Lick
TTITLE13=Blues Lick
TTITLE14=Blues Lick
TTITLE15=Blues Lick
TTITLE16=Blues Lick
TTITLE17=Blues Lick
TTITLE18=Blues Lick
TTITLE19=Blues Lick
TTITLE20=Blues Lick
TTITLE21=Blues Lick
TTITLE22=Blues Lick
TTITLE23=Blues Lick
TTITLE24=Blues Lick
TTITLE25=Blues Lick
TTITLE26=Blues Lick
TTITLE27=Blues Lick
TTITLE28=Blues Lick
TTITLE29=Blues Lick
TTITLE30=Blues Lick
TTITLE31=Blues Lick
TTITLE32=Blues Lick
TTITLE33=Blues Lick
TTITLE34=Blues Lick
TTITLE35=Blues Lick
TTITLE36=Blues Lick
TTITLE37=Blues Lick
TTITLE38=Blues Lick
TTITLE39=Blues Lick
TTITLE40=Blues Lick
TTITLE41=Blues Lick
TTITLE42=Blues Lick
TTITLE43=Blues Lick
TTITLE44=Blues Lick
TTITLE45=Blues Lick
TTITLE46=Blues Lick
TTITLE47=Blues Lick
TTITLE48=Blues Lick
TTITLE49=Blues Lick
TTITLE50=Blues Lick
TTITLE51=Blues Lick
TTITLE52=Blues Lick
TTITLE53=Blues Lick
TTITLE54=Blues Lick
TTITLE55=Blues Lick
TTITLE56=Blues Lick
TTITLE57=Blues Lick
TTITLE58=Blues Lick
TTITLE59=Blues Lick
TTITLE60=Blues Lick
TTITLE61=Blues Lick
TTITLE62=Blues Lick
TTITLE63=Blues Lick
TTITLE64=Blues Lick
TTITLE65=Blues Lick
TTITLE66=Blues Lick
TTITLE67=Blues Lick
TTITLE68=Blues Lick
TTITLE69=Blues Lick
TTITLE70=Blues Lick
TTITLE71=Blues Lick
TTITLE72=Blues Lick
TTITLE73=Blues Lick
TTITLE74=Blues Lick
TTITLE75=Blues Lick
TTITLE76=Blues Lick
TTITLE77=Blues Lick
TTITLE78=Blues Lick
TTITLE79=Blues Lick
TTITLE80=Blues Lick
TTITLE81=Blues Lick
TTITLE82=Blues Lick
TTITLE83=Blues Lick
TTITLE84=Blues Lick
TTITLE85=Blues Lick
TTITLE86=Blues Lick
TTITLE87=Blues Lick
TTITLE88=Blues Lick
TTITLE89=Blues Lick
TTITLE90=Blues Lick
TTITLE91=Blues Lick
TTITLE92=Blues Lick
EXTD=
EXTT0=
EXTT1=
EXTT2=
EXTT3=
EXTT4=
EXTT5=
EXTT6=
EXTT7=
EXTT8=
EXTT9=
EXTT10=
EXTT11=
EXTT12=
EXTT13=
EXTT14=
EXTT15=
EXTT16=
EXTT17=
EXTT18=
EXTT19=
EXTT20=
EXTT21=
EXTT22=
EXTT23=
EXTT24=
EXTT25=
EXTT26=
EXTT27=
EXTT28=
EXTT29=
EXTT30=
EXTT31=
EXTT32=
EXTT33=
EXTT34=
EXTT35=
EXTT36=
EXTT37=
EXTT38=
EXTT39=
EXTT40=
EXTT41=
EXTT42=
EXTT43=
EXTT44=
EXTT45=
EXTT46=
EXTT47=
EXTT48=
EXTT49=
EXTT50=
EXTT51=
EXTT52=
EXTT53=
EXTT54=
EXTT55=
EXTT56=
EXTT57=
EXTT58=
EXTT59=
EXTT60=
EXTT61=
EXTT62=
EXTT63=
EXTT64=
EXTT65=
EXTT66=
EXTT67=
EXTT68=
EXTT69=
EXTT70=
EXTT71=
EXTT72=
EXTT73=
EXTT74=
EXTT75=
EXTT76=
EXTT77=
EXTT78=
EXTT79=
EXTT80=
EXTT81=
EXTT82=
EXTT83=
EXTT84=
EXTT85=
EXTT86=
EXTT87=
EXTT88=
EXTT89=
EXTT90=
EXTT91=
EXTT92=
PLAYORDER=
